<?xml version="1.0" encoding="UTF-8"?>
<svg id="Layer_2" data-name="Layer 2" xmlns="http://www.w3.org/2000/svg" xmlns:xlink="http://www.w3.org/1999/xlink" viewBox="0 0 292.26 474.69">
  <defs>
    <style>
      .cls-1 {
        stroke: #444;
      }

      .cls-1, .cls-2, .cls-3 {
        stroke-width: 3px;
      }

      .cls-1, .cls-2, .cls-3, .cls-4, .cls-5, .cls-6, .cls-7, .cls-8, .cls-9 {
        fill: none;
        stroke-miterlimit: 10;
      }

      .cls-10 {
        fill: url(#radial-gradient);
      }

      .cls-10, .cls-11, .cls-12 {
        stroke-width: 0px;
      }

      .cls-2 {
        stroke: url(#linear-gradient-3);
      }

      .cls-3 {
        stroke: url(#linear-gradient-2);
      }

      .cls-4 {
        stroke: #efedf7;
      }

      .cls-5 {
        stroke: #cdd0d8;
      }

      .cls-6 {
        stroke: #e0dde0;
      }

      .cls-7 {
        stroke: #dddee2;
      }

      .cls-8 {
        stroke: #f8f7f1;
      }

      .cls-9 {
        stroke: url(#linear-gradient);
        stroke-width: 4px;
      }

      .cls-12 {
        fill: #ffef78;
      }
    </style>
    <linearGradient id="linear-gradient" x1="56.27" y1="441.12" x2="239.73" y2="441.12" gradientUnits="userSpaceOnUse">
      <stop offset=".08" stop-color="#ad8157"/>
      <stop offset=".12" stop-color="#d5b784"/>
      <stop offset=".21" stop-color="#d5b784"/>
      <stop offset=".26" stop-color="#fae9b8"/>
      <stop offset=".33" stop-color="#ad8157"/>
      <stop offset=".4" stop-color="#fae9b8"/>
      <stop offset=".49" stop-color="#d5b784"/>
      <stop offset=".75" stop-color="#fae9b8"/>
      <stop offset=".89" stop-color="#be9c7f"/>
    </linearGradient>
    <linearGradient id="linear-gradient-2" x1="114.32" y1="410.05" x2="182.77" y2="410.05" gradientUnits="userSpaceOnUse">
      <stop offset="0" stop-color="#f2ddb4"/>
      <stop offset=".21" stop-color="#e19d65"/>
      <stop offset=".53" stop-color="#dbb17d"/>
      <stop offset=".67" stop-color="#dbb17d"/>
      <stop offset=".89" stop-color="#f2ddb4"/>
    </linearGradient>
    <linearGradient id="linear-gradient-3" x1="0" y1="247.79" x2="289.67" y2="247.79" gradientUnits="userSpaceOnUse">
      <stop offset="0" stop-color="#c49e6e"/>
      <stop offset=".13" stop-color="#96612f"/>
      <stop offset=".18" stop-color="#d3b36c"/>
      <stop offset=".22" stop-color="#96612f"/>
      <stop offset=".27" stop-color="#c49e6e"/>
      <stop offset=".42" stop-color="#d3b36c"/>
      <stop offset=".46" stop-color="#96612f"/>
      <stop offset=".52" stop-color="#d3b36c"/>
      <stop offset=".62" stop-color="#7e5837"/>
      <stop offset=".65" stop-color="#d3b36c"/>
      <stop offset=".72" stop-color="#c49e6e"/>
      <stop offset=".77" stop-color="#d3b36c"/>
      <stop offset=".91" stop-color="#96612f"/>
      <stop offset=".97" stop-color="#d3b36c"/>
    </linearGradient>
    <radialGradient id="radial-gradient" cx="189.36" cy="234.4" fx="189.36" fy="234.4" r="102.9" gradientUnits="userSpaceOnUse">
      <stop offset=".21" stop-color="#fcee1d"/>
      <stop offset=".41" stop-color="#f4bd11"/>
      <stop offset=".69" stop-color="#e99d23"/>
      <stop offset=".78" stop-color="#eba41e"/>
      <stop offset=".93" stop-color="#f3ba12"/>
      <stop offset=".95" stop-color="#f4bd11"/>
    </radialGradient>
  </defs>
  <g id="Layer_2-2" data-name="Layer 2">
    <g>
      <g>
        <path class="cls-9" d="M112.91,410.16c-34.47,2.07-40.86,3.35-52.35,12.92-5.11,17.24-.64,30.64,3.19,34.47,37.03,22.34,141.72,17.87,168.53,0,10.85-11.49,2.55-30,0-34.47-8.94-12.13-39.47-14.99-51.02-12.92h-68.36Z"/>
        <path class="cls-3" d="M121.85,393.41c-7.02,5.42-7.66,23.29-3.19,27.76,19.15,7.66,44.69,7.66,56.18,0,11.49-7.66,5.11-23.6,0-27.76-13.41,5.42-45.33,2.88-52.99,0Z"/>
        <path class="cls-2" d="M102.7,96.62l16.6,30c-165.98,80.44-37.03,307.06,104.7,217.05,13.41-12.77,37.66-24.26,44.69-22.34l19.15,30c-12.77,15.96-37.03,29.37-54.9,30.64C71.41,465.61-120.1,230.68,102.7,96.62Z"/>
        <path class="cls-1" d="M153.26,138.49c-9.06-7.1-41.86-64.26-41.52-69.67,7.78-3.04,9.81-20.97-8.12-16.91-5.07-2.37-1.35-13.53-3.04-17.93-4.4-12.51-19.95-19.62-31.12-19.28-3.72-5.75-8.79-12.51-12.51-13.19-6.09-.34-13.87,4.73-14.2,6.43-.34,6.09,5.07,15.22,6.09,16.57-4.4,8.79-17.59,32.11,11.5,45.48,4.73,1.19,4.4,3.22,1.69,6.94s-6.43,19.28,14.2,16.23c8.12,4.4,41.26,62.23,41.6,66.97,9.13-1.69,32.65-14.2,35.44-21.65Z"/>
        <path class="cls-7" d="M62.96,25.01c-6.52,3.76-14.3,14.05-13.29,22.32,4.52,7.78,12.54,16.56,13.29,8.03.25-7.02-4.52-7.53-4.52-11.29.25-6.27,12.54-12.29,4.52-19.06Z"/>
        <path class="cls-7" d="M83.02,26.27c7.78,3.76,12.29,10.54,9.78,19.06,2.26,3.51,5.27,7.02,1.76,8.78-9.78,4.52-15.55,6.52-17.81,7.53,4.01-5.77,3.01-5.77,1.76-9.78.75-5.27,3.01-8.53,4.52-7.9,2.26-5.89-4.42-10.88,0-17.68Z"/>
        <path class="cls-4" d="M106.6,73.67c1.76,4.77,33.98,61.96,38.06,64.72,1.07,3.51-2.19,7.02-6.96,1.51-1-6.02-3.76-8.03-6.52-10.28-4.26-4.77-29.1-46.16-29.1-48.79,0,0-7.64-1.12-4.45-2.38,2.19-4.01,5.7-6.27,8.96-4.77Z"/>
        <path class="cls-7" d="M100.08,66.15c0-6.02,1-9.03,4.01-9.03,5.77,0,7.27,1.25,6.27,4.52-3.01,4.77-6.52,5.52-10.28,4.52Z"/>
        <path class="cls-5" d="M132.69,149.18c.59-2.95-3.01,1.51-5.27,2.01-5.52-1-4.52-5.29-4.52-8.41-1.51-5.13-2.76-3.63-4.26-3.88-1.51-4.01-25.59-48.16-28.6-49.41-4.26-2.01-8.78-1.76,25.08,50.42,1.25,4.77,4.88,14.07,7.27,16.05,5.78.54,9.78-4.26,10.28-6.77Z"/>
        <path class="cls-8" d="M79.63,92.98c-1.85-5.69-.14-7.69,15.09-16.65,10.25-5.69,20.48-12.53,17.36-12.67-7.83,5.12-28.89,16.37-34.3,19.92-2.56,2.85-4.55,6.55,1.85,9.39Z"/>
        <path class="cls-6" d="M67.16,82.21c5.24-5.95,16.14-15.43,19.97-16.84-1.21-3.63-.71-5.14-4.34-2.52-5.95,3.03-17.85,10.59-15.63,19.36Z"/>
        <path class="cls-7" d="M56.74,3.93c3.98,2.43,9.1,18.31-2.94,1.76-3.76,1-8.03-.59-7.02,2.97,4.01,6.82,4.38,8.57,9.97,10.33,2.82,4.01-2.44,7.53-4.45,7.27-4.34-1.75-10.27-15.68-10.27-15.68-.16-2.64,7.24-11.21,14.72-6.64Z"/>
        <ellipse class="cls-11" cx="250.48" cy="333.51" rx="15.06" ry="5.93" transform="translate(-113.63 130.06) rotate(-23.9)"/>
      </g>
      <circle class="cls-10" cx="189.36" cy="234.4" r="102.9"/>
      <path class="cls-12" d="M271.06,246.67c2.83-24.28-13.2-70.02-46.45-74.03-5.89-1.18-8.49-4.72-14.38-2.83,0,3.77,2.83,5.89,2.12,14.62.47,9.9-.24,12.02,6.37,18.39,12.97,18.15,9.67,36.78,18.15,46.21,8.02,1.89,26.88,2.83,34.19-2.36Z"/>
      <path class="cls-12" d="M113.3,245.73c3.63-5.16,10.89-8.98,14.9-10.7,8.41-8.02,8.79-17.96,7.64-21.02,8.41-10.13,13.57-23.5,21.97-25.6,1.72-6.88-.91-8.02-1.89-10.13-1.17-6.11-.74-15.48,0-17.2-9.58,1.15-17.03,9.17-21.23,11.46-7.64,3.82-9.55,8.41-13.76,14.52-8.22,11.27-26.37,45.09-7.64,58.65Z"/>
    </g>
  </g>
</svg>